<?xml version="1.0" encoding="UTF-8" standalone="no"?>
<svg
   xmlns:dc="http://purl.org/dc/elements/1.1/"
   xmlns:cc="http://creativecommons.org/ns#"
   xmlns:rdf="http://www.w3.org/1999/02/22-rdf-syntax-ns#"
   xmlns:svg="http://www.w3.org/2000/svg"
   xmlns="http://www.w3.org/2000/svg"
   viewBox="0 0 1133.8586 1133.8586"
   height="700"
   width="700"
   xml:space="preserve"
   id="svg2"
   version="1.1"><metadata
     id="metadata8"><rdf:RDF><cc:Work
         rdf:about=""><dc:format>image/svg+xml</dc:format><dc:type
           rdf:resource="http://purl.org/dc/dcmitype/StillImage" /></cc:Work></rdf:RDF></metadata><defs
     id="defs6"><clipPath
       id="clipPath24"
       clipPathUnits="userSpaceOnUse"><path
         id="path22"
         d="M 0,850.394 H 850.394 V 0 H 0 Z" /></clipPath><clipPath
       id="clipPath112"
       clipPathUnits="userSpaceOnUse"><path
         id="path110"
         d="m 602.809,584.057 h 0.032 v -0.036 h -0.032 z" /></clipPath><clipPath
       id="clipPath128"
       clipPathUnits="userSpaceOnUse"><path
         id="path126"
         d="m 491.423,611.487 h 106.508 v -59.95 H 491.423 Z" /></clipPath><clipPath
       id="clipPath144"
       clipPathUnits="userSpaceOnUse"><path
         id="path142"
         d="m 463.631,618.817 h 67.494 v -70.62 h -67.494 z" /></clipPath><clipPath
       id="clipPath160"
       clipPathUnits="userSpaceOnUse"><path
         id="path158"
         d="M 249.165,628.75 H 505.699 V 546.431 H 249.165 Z" /></clipPath><clipPath
       id="clipPath176"
       clipPathUnits="userSpaceOnUse"><path
         id="path174"
         d="M 251.468,573.791 H 594.24 V 459.344 H 251.468 Z" /></clipPath><clipPath
       id="clipPath196"
       clipPathUnits="userSpaceOnUse"><path
         id="path194"
         d="m 303.102,411.882 h 238.345 v -37.28 H 303.102 Z" /></clipPath></defs><g
     transform="matrix(1.3333333,0,0,-1.3333333,0,1133.8587)"
     id="g10"><path
       id="path12"
       style="fill:#79bd70;fill-opacity:1;fill-rule:nonzero;stroke:none"
       d="M 0,0 H 850.394 V 850.394 H 0 Z" /><g
       transform="translate(279.3203,209.6133)"
       id="g14"><path
         id="path16"
         style="fill:#fdfdfd;fill-opacity:1;fill-rule:nonzero;stroke:none"
         d="m 0,0 h -10.975 v -10.436 h 7.881 v -1.441 h -7.881 v -11.15 H 0.252 v -1.442 H -12.665 V 1.436 H 0 Z" /></g><g
       id="g18"><g
         clip-path="url(#clipPath24)"
         id="g20"><g
           transform="translate(297.0698,194.9678)"
           id="g26"><path
             id="path28"
             style="fill:#fdfdfd;fill-opacity:1;fill-rule:nonzero;stroke:none"
             d="m 0,0 c -1.188,0.612 -2.626,1.151 -4.138,1.151 -3.166,0 -4.425,-2.663 -4.425,-5.469 0,-2.124 1.186,-4.462 3.597,-4.462 2.375,0 3.815,1.907 4.966,3.849 z m 0.971,-10.219 c -0.36,1.043 -0.612,2.159 -0.719,3.238 -1.332,-1.905 -2.735,-3.238 -5.218,-3.238 -3.489,0 -5.289,2.842 -5.289,6.044 0,3.633 2.052,6.765 5.721,6.765 1.547,0 3.311,-0.612 4.641,-1.26 0.108,4.822 -0.754,6.835 -3.885,6.835 -1.655,0 -3.058,-0.574 -4.57,-1.257 l -0.396,1.547 c 1.656,0.648 3.274,1.151 5.073,1.151 3.491,0 5.578,-2.449 5.47,-6.691 L 1.582,-4.857 C 1.547,-6.694 2.014,-8.42 2.518,-10.005 Z" /></g><g
           transform="translate(320.6494,202.7402)"
           id="g30"><path
             id="path32"
             style="fill:#fdfdfd;fill-opacity:1;fill-rule:nonzero;stroke:none"
             d="m 0,0 h -6.98 v -12.99 c 0,-1.834 0.683,-3.563 3.022,-3.563 2.123,0 3.598,1.582 4.425,3.381 l 1.619,-0.392 c -1.187,-2.45 -3.274,-4.427 -6.116,-4.427 -2.448,0 -4.642,1.186 -4.642,6.009 V 0 h -4.282 v 1.438 h 4.282 V 7.553 H -6.98 V 1.438 H 0 Z" /></g><g
           transform="translate(342.5356,195.832)"
           id="g34"><path
             id="path36"
             style="fill:#fdfdfd;fill-opacity:1;fill-rule:nonzero;stroke:none"
             d="m 0,0 c 0.18,3.272 -1.762,7.301 -5.505,7.301 -3.706,0 -5.937,-3.955 -5.828,-7.301 z m 1.403,-9.357 c -2.194,-0.97 -4.353,-1.726 -6.799,-1.726 -5.577,0 -7.628,5.001 -7.628,9.823 0,4.823 2.123,10.002 7.736,10.002 3.202,0 6.98,-2.303 6.98,-10.183 h -13.025 c 0.323,-6.692 3.093,-8.204 6.008,-8.204 2.159,0 4.21,0.791 6.009,1.873 z" /></g><g
           transform="translate(355.394,185.1445)"
           id="g38"><path
             id="path40"
             style="fill:#fdfdfd;fill-opacity:1;fill-rule:nonzero;stroke:none"
             d="m 0,0 h -1.692 v 13.169 l -0.684,6.079 h 1.62 l 0.648,-5.396 c 1.259,2.627 3.237,5.578 6.512,5.578 3.166,0 3.993,-3.167 3.993,-5.757 H 8.707 C 8.67,15.434 8.562,17.988 6.259,17.988 4.317,17.988 0,14.968 0,7.734 Z" /></g><g
           transform="translate(387.6426,204.1787)"
           id="g42"><path
             id="path44"
             style="fill:#fdfdfd;fill-opacity:1;fill-rule:nonzero;stroke:none"
             d="m 0,0 -7.124,-18.097 c -1.007,-2.592 -2.626,-7.019 -5.973,-7.019 -2.159,0 -3.741,1.693 -4.389,3.636 l 1.439,0.755 c 0.467,-1.297 1.368,-2.95 2.95,-2.95 1.835,0 2.771,2.121 3.419,3.563 L -8.24,-16.84 -14.429,0 h 1.872 L -7.412,-14.61 -1.942,0 Z" /></g><g
           transform="translate(419.3652,206.3027)"
           id="g46"><path
             id="path48"
             style="fill:#fdfdfd;fill-opacity:1;fill-rule:nonzero;stroke:none"
             d="m 0,0 c 0,-2.268 0.683,-3.709 1.906,-5.725 3.095,4.717 3.095,4.43 3.095,6.405 0,1.371 -0.793,3.132 -2.448,3.132 C 0.647,3.812 0,1.582 0,0 m 1.619,-8.566 c -1.727,-2.192 -3.671,-4.495 -3.671,-7.413 0,-2.481 1.44,-4.242 4.031,-4.242 2.303,0 4.137,1.149 5.253,3.094 z m 6.296,-6.762 c 0.612,2.051 0.612,4.459 0.612,6.943 h 1.799 c -0.109,-3.381 -0.361,-6.082 -1.332,-8.455 l 3.095,-3.671 -1.187,-1.221 -2.807,3.345 c -1.475,-2.05 -3.526,-3.275 -6.081,-3.275 -3.417,0 -5.865,2.121 -5.865,5.578 0,3.741 2.268,6.296 4.57,9.138 -1.223,2.015 -2.519,4.139 -2.519,6.548 0,2.771 1.296,5.648 4.57,5.648 2.338,0 4.03,-2.229 4.03,-4.711 0,-3.094 -1.979,-5.218 -3.958,-7.594 z" /></g><g
           transform="translate(463.3911,186.5859)"
           id="g50"><path
             id="path52"
             style="fill:#fdfdfd;fill-opacity:1;fill-rule:nonzero;stroke:none"
             d="M 0,0 H 11.368 V -1.441 H -1.692 V 24.463 H 0 Z" /></g><g
           transform="translate(493.6255,194.6777)"
           id="g54"><path
             id="path56"
             style="fill:#fdfdfd;fill-opacity:1;fill-rule:nonzero;stroke:none"
             d="m 0,0 c 0,3.709 -0.935,8.455 -5.612,8.455 -4.642,0 -5.576,-4.746 -5.576,-8.455 0,-3.738 0.934,-8.49 5.576,-8.49 C -0.935,-8.49 0,-3.703 0,0 m -12.88,0 c 0,7.412 3.815,9.896 7.268,9.896 3.166,0 7.304,-2.121 7.304,-9.896 0,-7.734 -4.101,-9.929 -7.304,-9.929 -3.201,0 -7.268,2.159 -7.268,9.929" /></g><g
           transform="translate(514.3979,204.1787)"
           id="g58"><path
             id="path60"
             style="fill:#fdfdfd;fill-opacity:1;fill-rule:nonzero;stroke:none"
             d="m 0,0 h 1.691 v -9.39 c 0,-3.24 0.108,-6.48 0.756,-9.644 H 0.863 l -0.718,5.396 H 0.072 c -0.72,-2.841 -3.742,-5.792 -6.729,-5.792 -3.454,0 -4.425,3.132 -4.425,6.009 V 0 h 1.691 v -12.63 c 0,-3.598 0.9,-5.361 2.951,-5.361 2.806,0 6.44,3.094 6.44,10.289 z" /></g><g
           transform="translate(526.4614,185.1445)"
           id="g62"><path
             id="path64"
             style="fill:#fdfdfd;fill-opacity:1;fill-rule:nonzero;stroke:none"
             d="m 0,0 h -1.69 v 9.533 c 0,3.24 -0.109,6.478 -0.756,9.715 h 1.584 l 0.683,-5.467 h 0.073 c 0.718,2.842 3.74,5.649 6.763,5.649 3.455,0 4.426,-2.989 4.426,-5.866 V 0 H 9.392 v 12.773 c 0,2.195 0,5.215 -2.952,5.215 C 3.706,17.988 0,15.258 0,7.846 Z" /></g><g
           transform="translate(557.4897,200.3643)"
           id="g66"><path
             id="path68"
             style="fill:#fdfdfd;fill-opacity:1;fill-rule:nonzero;stroke:none"
             d="m 0,0 c -1.116,1.585 -2.95,2.769 -4.966,2.769 -3.921,0 -5.216,-4.243 -5.216,-7.483 0,-6.009 3.489,-7.377 5.036,-7.377 1.944,0 4.138,1.225 5.146,2.918 z m -9.463,-17.704 c 1.115,-1.33 2.915,-2.156 4.678,-2.156 2.122,0 4.857,1.547 4.857,6.331 v 2.341 c -1.295,-1.369 -3.491,-2.341 -5.361,-2.341 -4.534,0 -6.585,4.532 -6.585,8.493 0,4.389 1.799,9.246 6.979,9.246 2.125,0 3.563,-0.938 5.182,-2.197 L 0.791,4.21 H 2.518 C 1.655,0.935 1.69,-2.481 1.69,-5.827 v -7.916 c 0,-5.613 -3.884,-7.559 -6.799,-7.559 -1.979,0 -4.21,1.155 -5.541,2.555 z" /></g><g
           transform="translate(580.1323,195.832)"
           id="g70"><path
             id="path72"
             style="fill:#fdfdfd;fill-opacity:1;fill-rule:nonzero;stroke:none"
             d="m 0,0 c 0.18,3.272 -1.763,7.301 -5.506,7.301 -3.705,0 -5.936,-3.955 -5.828,-7.301 z m 1.402,-9.357 c -2.193,-0.97 -4.353,-1.726 -6.798,-1.726 -5.578,0 -7.628,5.001 -7.628,9.823 0,4.823 2.122,10.002 7.734,10.002 3.204,0 6.981,-2.303 6.981,-10.183 h -13.025 c 0.324,-6.692 3.094,-8.204 6.009,-8.204 2.159,0 4.21,0.791 6.009,1.873 z" /></g><g
           transform="translate(165.0947,313.8574)"
           id="g74"><path
             id="path76"
             style="fill:#ffffff;fill-opacity:1;fill-rule:nonzero;stroke:none"
             d="m 0,0 v -50.537 c 0,-18.469 -11.231,-22.354 -20.625,-22.354 -5.616,0 -10.367,1.512 -14.254,3.78 v 8.097 c 3.564,-2.484 7.882,-4.318 13.281,-4.318 9.828,0 13.823,4.427 13.823,15.439 l 0,49.893 z" /></g><g
           transform="translate(230.4341,268.3945)"
           id="g78"><path
             id="path80"
             style="fill:#ffffff;fill-opacity:1;fill-rule:nonzero;stroke:none"
             d="m 0,0 c 0,0 -3.564,0.647 -9.611,0.647 -6.479,0 -19.545,-0.755 -19.545,-10.69 0,-8.531 8.099,-10.151 14.793,-10.151 6.696,0 14.363,1.62 14.363,9.829 z m 7.775,5.83 v -16.195 c 0,-14.904 -15.118,-17.063 -22.138,-17.063 -7.018,0 -22.569,2.159 -22.569,17.385 0,17.818 23.218,17.71 28.185,17.71 4.859,0 8.639,-0.542 8.639,-0.542 0,10.154 -6.047,13.392 -15.767,13.392 -7.773,0 -13.713,-1.837 -15.766,-2.593 v 7.558 c 3.996,1.407 9.504,2.81 16.199,2.81 15.118,0 23.217,-7.775 23.217,-22.462" /></g><g
           transform="translate(288.54,248.0918)"
           id="g82"><path
             id="path84"
             style="fill:#ffffff;fill-opacity:1;fill-rule:nonzero;stroke:none"
             d="M 0,0 C 9.502,0 14.361,3.135 14.361,9.504 V 38.66 c -4.211,1.729 -8.746,2.701 -13.39,2.701 -11.77,0 -16.846,-6.047 -16.846,-19.98 C -15.875,2.162 -6.804,0 0,0 m 0.971,48.486 c 4.644,0 9.072,-0.647 13.39,-2.05 v 21.703 h 7.776 V 9.826 C 22.137,5.83 20.517,-7.125 0,-7.125 c -8.855,0 -23.65,3.671 -23.65,28.506 0,22.465 13.39,27.105 24.621,27.105" /></g><g
           transform="translate(377.4224,271.0957)"
           id="g86"><path
             id="path88"
             style="fill:#ffffff;fill-opacity:1;fill-rule:nonzero;stroke:none"
             d="M 0,0 C 0,2.59 -0.864,18.246 -15.766,18.246 -26.35,18.246 -30.776,13.28 -31.532,0 Z m 7.991,-3.135 c 0,-2.051 -0.217,-3.779 -0.217,-3.779 h -39.306 c 0.971,-10.799 6.37,-15.44 17.493,-15.44 7.884,0 13.931,1.295 18.466,3.997 v -7.993 c -5.183,-2.484 -11.555,-3.779 -19.222,-3.779 -11.231,0 -24.621,4.641 -24.621,27.106 0,5.721 -0.863,28.614 23.65,28.614 24.513,0 23.757,-26.672 23.757,-28.726" /></g><g
           transform="translate(510.7993,249.3867)"
           id="g90"><path
             id="path92"
             style="fill:#ffffff;fill-opacity:1;fill-rule:nonzero;stroke:none"
             d="m 0,0 v -7.559 h -44.597 v 72.03 h 7.774 V 0 Z" /></g><g
           transform="translate(572.3628,271.0957)"
           id="g94"><path
             id="path96"
             style="fill:#ffffff;fill-opacity:1;fill-rule:nonzero;stroke:none"
             d="M 0,0 C 0,2.59 -0.865,18.246 -15.767,18.246 -26.35,18.246 -30.777,13.28 -31.533,0 Z m 7.99,-3.135 c 0,-2.051 -0.217,-3.779 -0.217,-3.779 h -39.306 c 0.971,-10.799 6.371,-15.44 17.494,-15.44 7.883,0 13.93,1.295 18.465,3.997 v -7.993 c -5.182,-2.484 -11.555,-3.779 -19.221,-3.779 -11.231,0 -24.621,4.641 -24.621,27.106 0,5.721 -0.863,28.614 23.649,28.614 24.513,0 23.757,-26.672 23.757,-28.726" /></g><g
           transform="translate(642.02,268.3945)"
           id="g98"><path
             id="path100"
             style="fill:#ffffff;fill-opacity:1;fill-rule:nonzero;stroke:none"
             d="m 0,0 c 0,0 -3.563,0.647 -9.61,0.647 -6.48,0 -19.546,-0.755 -19.546,-10.69 0,-8.531 8.098,-10.151 14.794,-10.151 6.695,0 14.362,1.62 14.362,9.829 z m 7.775,5.83 v -16.195 c 0,-14.904 -15.118,-17.063 -22.137,-17.063 -7.019,0 -22.57,2.159 -22.57,17.385 0,17.818 23.218,17.71 28.185,17.71 4.859,0 8.639,-0.542 8.639,-0.542 0,10.154 -6.047,13.392 -15.766,13.392 -7.774,0 -13.715,-1.837 -15.767,-2.593 v 7.558 c 3.996,1.407 9.504,2.81 16.199,2.81 15.119,0 23.217,-7.775 23.217,-22.462" /></g><g
           transform="translate(690.5151,298.7402)"
           id="g102"><path
             id="path104"
             style="fill:#ffffff;fill-opacity:1;fill-rule:nonzero;stroke:none"
             d="m 0,0 v -3.023 h 14.795 v -7.131 H 0 v -46.758 h -7.773 v 46.758 h -9.288 v 7.131 h 9.288 v 2.912 c 0,19.763 13.066,19.763 17.384,19.763 1.944,0 3.672,-0.216 5.184,-0.65 v -6.908 c -1.08,0.217 -2.376,0.43 -3.888,0.43 C 5.939,12.524 0,12.524 0,0" /></g><g
           id="g106"><g
             id="g108" /><g
             id="g120"><g
               style="opacity:0.39999402"
               id="g118"
               clip-path="url(#clipPath112)"><g
                 id="g116"
                 transform="translate(602.8413,584.0391)"><path
                   id="path114"
                   style="fill:#ffffff;fill-opacity:1;fill-rule:nonzero;stroke:none"
                   d="M 0,0 C -0.01,0.006 -0.021,0.012 -0.032,0.018 -0.026,0.006 -0.02,-0.006 -0.015,-0.018 -0.012,-0.015 0,0 0,0" /></g></g></g></g><g
           id="g122"><g
             id="g124" /><g
             id="g136"><g
               style="opacity:0.39999402"
               id="g134"
               clip-path="url(#clipPath128)"><g
                 id="g132"
                 transform="translate(502.2974,553.3359)"><path
                   id="path130"
                   style="fill:#ffffff;fill-opacity:1;fill-rule:nonzero;stroke:none"
                   d="m 0,0 c 31.585,5.698 67.458,14.039 94.395,32.713 0.418,0.29 0.832,0.469 1.239,0.598 C 75.984,43.729 56.73,51.914 37.998,58.151 21.708,38.168 5.417,18.185 -10.874,-1.799 -7.245,-1.242 -3.618,-0.653 0,0" /></g></g></g></g><g
           id="g138"><g
             id="g140" /><g
             id="g152"><g
               style="opacity:0.39999402"
               id="g150"
               clip-path="url(#clipPath144)"><g
                 id="g148"
                 transform="translate(463.6313,548.1973)"><path
                   id="path146"
                   style="fill:#ffffff;fill-opacity:1;fill-rule:nonzero;stroke:none"
                   d="M 0,0 C 5.202,0.457 10.395,1.022 15.58,1.664 15.722,2.367 16.021,3.07 16.559,3.729 33.536,24.557 50.515,45.384 67.494,66.211 62.121,67.837 56.8,69.296 51.521,70.62 34.347,47.08 17.173,23.54 0,0" /></g></g></g></g><g
           id="g154"><g
             id="g156" /><g
             id="g168"><g
               style="opacity:0.39999402"
               id="g166"
               clip-path="url(#clipPath160)"><g
                 id="g164"
                 transform="translate(249.165,571.7695)"><path
                   id="path162"
                   style="fill:#ffffff;fill-opacity:1;fill-rule:nonzero;stroke:none"
                   d="M 0,0 C 65.858,-17.845 134.791,-28.632 202.753,-24.434 220.68,0.141 238.607,24.712 256.534,49.283 119.515,79.482 16.708,11.88 0,0" /></g></g></g></g><g
           id="g170"><g
             id="g172" /><g
             id="g184"><g
               style="opacity:0.39999402"
               id="g182"
               clip-path="url(#clipPath176)"><g
                 id="g180"
                 transform="translate(251.4678,561.8613)"><path
                   id="path178"
                   style="fill:#ffffff;fill-opacity:1;fill-rule:nonzero;stroke:none"
                   d="M 0,0 C 126.699,-213.606 302.219,-34.468 342.772,11.93 314.747,-4.998 279.01,-13.16 247.713,-18.138 164.997,-31.286 80.695,-21.27 0,0" /></g></g></g></g><g
           transform="translate(531.1255,614.4082)"
           id="g186"><path
             id="path188"
             style="fill:#ffffff;fill-opacity:1;fill-rule:nonzero;stroke:none"
             d="m 0,0 c -16.979,-20.827 -33.958,-41.654 -50.936,-62.481 -0.538,-0.66 -0.836,-1.363 -0.978,-2.066 -5.186,-0.641 -10.378,-1.207 -15.58,-1.664 17.173,23.54 34.347,47.08 51.52,70.62 5.158,7.07 10.315,14.139 15.475,21.211 C 5.11,23.856 10.685,21.955 16.21,19.884 10.806,13.257 5.403,6.627 0,0 m -281.96,-42.639 c -13.679,3.706 -27.235,7.697 -40.612,11.942 38.647,26.768 84.331,45.627 129.125,58.131 62.087,17.332 125.032,17.487 183.841,0.896 -5.274,-7.227 -10.547,-14.458 -15.821,-21.685 -17.927,-24.572 -35.853,-49.143 -53.78,-73.717 -67.963,-4.199 -136.896,6.589 -202.753,24.433 m 399.88,13.577 C 72.299,8.458 19.819,34.972 -38.517,45.472 c -47.578,8.563 -96.588,5.153 -143.461,-5.804 -53.228,-12.439 -108.464,-35.332 -152.733,-68.027 -3.114,-2.3 -2.867,-6.938 1.074,-8.224 17.77,-5.804 35.783,-11.168 53.979,-15.964 80.696,-21.269 164.997,-31.286 247.714,-18.138 31.297,4.978 67.033,13.14 95.058,30.068 2.383,1.438 4.731,2.918 6.993,4.488 2.128,1.474 2.384,3.858 1.594,5.742 -0.005,0.012 -0.012,0.024 -0.017,0.035 -0.821,1.919 -2.732,3.276 -4.878,2.59 -0.408,-0.129 -0.821,-0.307 -1.24,-0.597 -26.936,-18.674 -62.809,-27.015 -94.394,-32.713 -3.618,-0.654 -7.245,-1.242 -10.874,-1.799 16.291,19.983 32.582,39.967 48.872,59.95 5.267,6.46 10.534,12.923 15.8,19.383 C 54.612,4.359 82.853,-12.287 109.003,-33.39 93.269,-62.206 69.946,-87.709 47.21,-110.889 c -18.906,-19.274 -37.953,-35.672 -62.699,-46.749 -24.185,-10.825 -50.994,-16.119 -77.297,-17.941 -55.931,-3.876 -109.885,13.263 -149.186,53.947 -12.132,12.56 -20.872,27.856 -32.811,40.57 -15.227,16.213 -36.2,25.723 -56.461,33.915 -5.384,2.176 -7.702,-6.534 -2.393,-8.678 24.055,-9.724 45.701,-21.61 61.693,-42.448 12.639,-16.468 24.593,-32.06 40.651,-45.513 40.775,-34.166 94.688,-44.619 146.655,-40.16 51.041,4.377 94.036,23.953 130.662,59.215 27.11,26.1 55.047,56.458 72.6,90.216 0.869,1.67 0.893,4.14 -0.704,5.453" /></g><g
           id="g190"><g
             id="g192" /><g
             id="g204"><g
               style="opacity:0.30000299"
               id="g202"
               clip-path="url(#clipPath196)"><g
                 id="g200"
                 transform="translate(541.4468,393.2402)"><path
                   id="path198"
                   style="fill:#519b50;fill-opacity:1;fill-rule:nonzero;stroke:none"
                   d="m 0,0 c 0,-10.292 -53.353,-18.639 -119.174,-18.639 -65.815,0 -119.171,8.347 -119.171,18.639 0,10.295 53.356,18.642 119.171,18.642 C -53.353,18.642 0,10.295 0,0" /></g></g></g></g></g></g></g></svg>
